<svg xmlns="http://www.w3.org/2000/svg" width="24" height="24"><path d="M12 0a12 12 0 1 0 12 12A12 12 0 0 0 12 0zm0 21.677A9.677 9.677 0 1 1 21.677 12 9.675 9.675 0 0 1 12 21.677zM16.926 8.99 13.916 12l3.01 3.01a.581.581 0 0 1 0 .823l-1.094 1.094a.581.581 0 0 1-.823 0L12 13.916l-3.01 3.01a.581.581 0 0 1-.823 0l-1.094-1.094a.581.581 0 0 1 0-.823L10.084 12l-3.01-3.01a.581.581 0 0 1 0-.823l1.094-1.094a.581.581 0 0 1 .823 0L12 10.084l3.01-3.01a.581.581 0 0 1 .823 0l1.094 1.094a.581.581 0 0 1 0 .823z"/></svg>