<svg xmlns="http://www.w3.org/2000/svg" viewBox="0 0 819.53 815.63"><defs><style>.cls-1{fill:#fff;}</style></defs><g id="Capa_2" data-name="Capa 2"><g id="Capa_1-2" data-name="Capa 1"><path class="cls-1" d="M819,356a32,32,0,0,0,.41-3.58c0-31.49-.06-63,.11-94.48,0-4.42-2.32-4.22-5.33-4.22q-404.41,0-808.81-.06c-4.08,0-5.39,1-5.36,5.25.17,30.66.08,61.32.1,92,0,1.62.15,3.25.25,5.11ZM.38,458.76c-.1,1.95-.25,3.58-.25,5.21,0,30.49.1,61-.13,91.48,0,4.8,1.55,5.72,6,5.7,42-.15,84-.09,126-.09H812.75c6.68,0,6.69,0,6.69-6.76V458.76Zm561-307.5L410.12,0,258.86,151.26ZM562,663.67H258.05l152,152Z"/><path d="M819,356H.38c-.1-1.86-.25-3.49-.25-5.11,0-30.66.07-61.32-.1-92,0-4.22,1.28-5.25,5.36-5.25q404.4.14,808.81.06c3,0,5.35-.2,5.33,4.22-.17,31.49-.09,63-.11,94.48A32,32,0,0,1,819,356Z"/><path d="M.38,458.76H819.44V554.3c0,6.76,0,6.76-6.69,6.76H131.92c-42,0-84-.06-126,.09-4.4,0-6-.9-5.95-5.7C.23,525,.11,494.46.13,464,.13,462.34.28,460.71.38,458.76Z"/><path d="M561.37,151.26H258.86L410.12,0Z"/><path d="M562,663.67l-152,152-151.95-152Z"/></g></g></svg>