<svg data-name="Grupo 555" xmlns="http://www.w3.org/2000/svg" width="18.908" height="18.99"><path data-name="Trazado 266" d="m18.138.64-.023-.021a2.366 2.366 0 0 0-3.343.151l-8.456 9.258a.816.816 0 0 0-.172.292L5.15 13.3a1.134 1.134 0 0 0 1.073 1.492 1.129 1.129 0 0 0 .455-.1l2.879-1.259a.816.816 0 0 0 .276-.2l8.456-9.258A2.369 2.369 0 0 0 18.138.64zM7.055 12.75 7.639 11l.049-.054 1.106 1.01-.049.054zm10.028-9.869-7.189 7.87-1.106-1.01 7.189-7.87a.733.733 0 0 1 1.036-.047l.023.021a1.21 1.21 0 0 1 .048 1.037z"/><path data-name="Trazado 267" d="M16.498 7.532a.816.816 0 0 0-.816.816v6.932a2.079 2.079 0 0 1-2.076 2.076h-9.9a2.079 2.079 0 0 1-2.073-2.075V5.465A2.079 2.079 0 0 1 3.709 3.39h7.162a.817.817 0 1 0 0-1.633H3.709A3.714 3.714 0 0 0 0 5.465v9.815a3.714 3.714 0 0 0 3.709 3.71h9.9a3.714 3.714 0 0 0 3.709-3.709V8.349a.816.816 0 0 0-.82-.817z"/></svg>