<svg xmlns="http://www.w3.org/2000/svg" viewBox="0 0 47.33 34.9">
  <g id="Capa_2" data-name="Capa 2">
    <g id="Capa_1-2" data-name="Capa 1">
      <g id="Capa_2-2" data-name="Capa 2">
        <g id="Capa_1-2-2" data-name="Capa 1-2">
          <path
            d="M37.21,17.28c.78-.84,1.51-1.74,2.36-2.51A10.59,10.59,0,0,1,42,13c2.81-1.41,5.34.14,5.33,3.29a15.45,15.45,0,0,1-2.57,8,22.39,22.39,0,0,1-8.86,8.38.71.71,0,0,0-.37.49h2.73a21.18,21.18,0,0,1,2.76,0c.45.06,1.16.43,1.21.75.12.74-.52.94-1.2.93H30.47a7.3,7.3,0,0,1-1.59-.48,6,6,0,0,1,.55-1.59A33.94,33.94,0,0,0,35,19.3a32.9,32.9,0,0,0-.41-13c-.13-.58-.22-1.17-.36-1.75A3.42,3.42,0,0,0,31.1,1.72,3.5,3.5,0,0,0,27.25,4.2a1.44,1.44,0,0,1-1.58,1.26h-.12c-1.36-.06-2.72,0-4.08,0a1.2,1.2,0,0,1-1.36-1h0a3.56,3.56,0,0,0-4-2.68A3.45,3.45,0,0,0,13,4.94a70.55,70.55,0,0,0-1.13,9.73,32,32,0,0,0,6,18.26,6.83,6.83,0,0,1,.55,1.47,6.14,6.14,0,0,1-1.61.5H6.4c-.7,0-1.4,0-1.4-.9s.73-.78,1.34-.78a48.17,48.17,0,0,0,5.5-.22c-.39-.22-.78-.44-1.16-.67A21.43,21.43,0,0,1,.24,18.73a9.31,9.31,0,0,1-.17-3.2C.38,13.06,2.34,12,4.71,12.8a11.49,11.49,0,0,1,5,4.15l.46.6V16A41.13,41.13,0,0,1,11.38,4.2,5.28,5.28,0,0,1,16,.05a5.17,5.17,0,0,1,5.23,2.64,1.68,1.68,0,0,0,1.93,1.08,13.36,13.36,0,0,0,1.55,0A2.1,2.1,0,0,0,25.81,3,5.44,5.44,0,0,1,36.06,4.8C36.82,8.92,37.64,13,37.21,17.28ZM32,32.53c.89-.38,1.91-.71,2.83-1.21,5.68-3.12,9.64-7.54,10.72-14.12.16-1,.21-2.08-.76-2.71s-1.94,0-2.76.53a7.71,7.71,0,0,0-1.81,1.56,20.1,20.1,0,0,0-2.73,3.75C35.54,24.33,33.81,28.43,32,32.53Zm-16.78,0c-1.23-3-2.43-5.85-3.64-8.74A20.67,20.67,0,0,0,5.9,15.47c-.94-.76-2.06-1.73-3.33-1s-1,2.25-.76,3.38c1.75,7.35,6.53,12,13.39,14.67Z" />
          <path
            d="M30.74,7.2a2,2,0,0,1-1.83-1.74A1.76,1.76,0,0,1,30.64,3.7a1.65,1.65,0,0,1,1.82,1.46h0v.17A1.84,1.84,0,0,1,30.74,7.2Z" />
          <path
            d="M16.58,7.2a1.93,1.93,0,0,1-1.82-1.73,1.79,1.79,0,0,1,1.72-1.79,1.63,1.63,0,0,1,1.79,1.46v.18A1.73,1.73,0,0,1,16.76,7.2Z" />
        </g>
      </g>
    </g>
  </g>
</svg>