<?xml version="1.0" encoding="utf-8"?>
<!-- Generator: Adobe Illustrator 25.0.0, SVG Export Plug-In . SVG Version: 6.00 Build 0)  -->
<svg version="1.1" id="Capa_1" xmlns="http://www.w3.org/2000/svg" xmlns:xlink="http://www.w3.org/1999/xlink" x="0px" y="0px"
	 viewBox="0 0 54.2 45" style="enable-background:new 0 0 54.2 45;" xml:space="preserve">
<style type="text/css">
	.st0{fill:#FFFFFF;}
</style>
<g>
	<circle class="st0" cx="30.6" cy="21.7" r="18.4"/>
	<g id="Capa_2_1_">
		<g id="Capa_1-2">
			<g id="Capa_2-2">
				<g id="Capa_1-2-2">
					<path d="M36.3,23.4c0.3,2.4,0.7,4.8,1,7.2c0,0.7,0.5,1.3,1.2,1.3c0,0,0,0,0,0h0.1c0.4,0,0.8,0,1.2,0c0.2,0.1,0.3,0.4,0.5,0.6
						c-0.2,0.2-0.4,0.6-0.6,0.6c-0.6,0.1-1.1,0.1-1.7,0c-0.9-0.1-1.5-0.9-1.7-1.9c-0.4-2.6-0.7-5.3-1.1-7.9
						c-0.1-0.5,0.1-1.1,0.6-1.2l0,0c2.2-1.2,4.1-2.8,5.8-4.9c0.5-0.7,1-1.5,1.4-2.3c0.4-0.5,0.3-1.2-0.1-1.6c0,0,0,0,0,0l0,0
						c-0.1-0.1-0.3-0.2-0.5-0.3c-1.1-0.4-2.3-0.8-3.5-1.1c-0.6-0.2-0.9-0.4-0.9-1.2C38,9.5,37,8.4,35.9,8.4
						c-1.1-0.1-2.1,0.9-2.3,2.3c-0.1,1-0.6,1.3-1.3,1.5c-6.8,2.3-11.4,7.2-13,15.6c0,0.1,0,0.2,0,0.2c0.8-1.4,1.5-2.8,2.3-4.1
						c1.6-2.8,4-4.8,6.8-5.6c0.5-0.1,1-0.2,1.5-0.2c1.5-0.1,2.8,1.3,2.9,3.1c0,0,0,0,0,0l0,0c0,0.5,0,0.9-0.2,1.4
						c-0.5,1.8-1.5,3.3-2.7,4.5c-1.8,1.9-3.8,3.3-6,4.3c-0.2,0.1-0.5,0.3-0.6,0.5h7.2c0.4,0,0.9,0,0.7,0.7c-0.1,0.3-0.4,0.6-0.7,0.6
						c-2.3,0.1-4.7,0-7,0h-4.6c-0.9,0-1-0.1-1-1.3c0.1-11.3,6.5-18.6,14.1-21c0.3-0.1,0.5-0.4,0.6-0.7c0.6-2.1,1.8-3.1,3.5-3.1
						c1.6,0,2.8,1.3,3.2,3.3c0,0.1,0,0.1,0,0.1c1.3,0.4,2.4,0.8,3.6,1.3c1.1,0.3,1.8,1.6,1.5,3c0,0,0,0,0,0
						c-0.1,0.3-0.2,0.6-0.4,0.9C42.3,19,39.8,21.2,37,23c-0.2,0.1-0.4,0.2-0.5,0.3L36.3,23.4z M19.1,31.8c0.9-0.3,1.6-0.5,2.2-0.7
						c3.3-1.1,6.4-2.8,8.8-6c0.6-0.8,1.1-1.8,1.5-2.8c0.5-1.5-0.3-2.7-1.7-2.8c-1.3,0-2.6,0.4-3.8,1.3
						C22.6,23.2,20.8,27.2,19.1,31.8z"/>
					<path d="M35.8,12.5c-0.6,0-1.1-0.6-1.1-1.3c0-0.8,0.5-1.4,1.2-1.3c0,0,0,0,0,0l0,0c0.6,0,1.1,0.7,1,1.4
						C36.9,11.9,36.4,12.5,35.8,12.5C35.8,12.5,35.8,12.5,35.8,12.5z"/>
				</g>
			</g>
		</g>
	</g>
</g>
</svg>
