<svg xmlns="http://www.w3.org/2000/svg" width="18.908" height="20.285"><path d="m13.32 6.993-1.588-.058-.344 9.4 1.588.058zM8.659 6.964h1.589v9.401H8.659zM7.52 16.336l-.344-9.4-1.588.058.344 9.4z"/><path d="M0 3.045v1.589h1.656L2.969 19.56a.794.794 0 0 0 .791.725h11.361a.794.794 0 0 0 .791-.725l1.309-14.926h1.682V3.045zm14.393 15.651H4.488L3.251 4.634h12.38z"/><g><path d="M12.049 0h-5.19a1.326 1.326 0 0 0-1.324 1.324V3.84h1.589V1.589h4.661V3.84h1.589V1.324A1.326 1.326 0 0 0 12.049 0z"/></g></svg>