<svg xmlns="http://www.w3.org/2000/svg" viewBox="0 0 46.08 38.4"><defs><style>.cls-1{fill:#fff;}</style></defs><g id="Capa_2" data-name="Capa 2"><g id="Capa_1-2" data-name="Capa 1"><path class="cls-1" d="M0,38.4V0H46.08V38.4ZM31.47,23.2a2.55,2.55,0,0,1,.24-.24c.28-.15.57-.28.85-.44,4.4-2.4,8.42-5.23,11.09-9.61,1.33-2.19.57-4.36-1.84-5.18-1.87-.64-3.8-1.12-5.75-1.68,0,0,0-.09-.06-.16-.7-2.73-2.59-4.39-5.07-4.45-2.78-.06-4.63,1.35-5.58,4.13a1.7,1.7,0,0,1-1,.91C12.28,9.69,2,19.36,1.87,34.55c0,1.54.08,1.67,1.59,1.67h7.43c3.72,0,7.44,0,11.16,0a1.48,1.48,0,0,0,1.17-.78c.18-.85-.56-.88-1.18-.89H10.6a2,2,0,0,1,1-.65,30.21,30.21,0,0,0,9.65-5.67,13.75,13.75,0,0,0,4.27-6,4.42,4.42,0,0,0-4.36-6,13.58,13.58,0,0,0-2.37.29c-4.67,1-8.14,3.74-10.94,7.43-1.32,1.74-2.44,3.62-3.66,5.45a1.08,1.08,0,0,1,0-.31C6.79,17.79,14.1,11.19,25,8.18c1.25-.35,2-.67,2.16-2.12a3.52,3.52,0,0,1,3.67-2.95,3.67,3.67,0,0,1,3.53,3.31c.06,1,.54,1.31,1.44,1.51,1.86.4,3.71.88,5.53,1.45a1.55,1.55,0,0,1,.93,2.55,22.12,22.12,0,0,1-2.31,3,30,30,0,0,1-9.24,6.54,1.33,1.33,0,0,0-.92,1.66c.61,3.49,1.13,7,1.73,10.49a3.09,3.09,0,0,0,2.72,2.51,12,12,0,0,0,2.75,0c.32,0,.59-.5.88-.78-.27-.28-.5-.74-.82-.82a10.09,10.09,0,0,0-1.91-.06,1.79,1.79,0,0,1-2-1.73C32.6,29.59,32,26.42,31.47,23.2ZM30.62,8.63a1.73,1.73,0,0,0,1.77-1.72,1.76,1.76,0,0,0-1.65-1.85,1.83,1.83,0,0,0-1.88,1.78A1.87,1.87,0,0,0,30.62,8.63Z"/><path d="M31.47,23.2c.55,3.22,1.13,6.39,1.61,9.58a1.79,1.79,0,0,0,2,1.73,10.09,10.09,0,0,1,1.91.06c.32.08.55.54.82.82-.29.28-.56.75-.88.78a12,12,0,0,1-2.75,0,3.09,3.09,0,0,1-2.72-2.51c-.6-3.49-1.12-7-1.73-10.49a1.33,1.33,0,0,1,.92-1.66A30,30,0,0,0,39.9,15a22.12,22.12,0,0,0,2.31-3,1.55,1.55,0,0,0-.93-2.55c-1.82-.57-3.67-1.05-5.53-1.45-.9-.2-1.38-.47-1.44-1.51a3.67,3.67,0,0,0-3.53-3.31,3.52,3.52,0,0,0-3.67,2.95C26.94,7.51,26.2,7.83,25,8.18,14.1,11.19,6.79,17.79,4.16,29a1.08,1.08,0,0,0,0,.31c1.22-1.83,2.34-3.71,3.66-5.45,2.8-3.69,6.27-6.46,10.94-7.43a13.58,13.58,0,0,1,2.37-.29,4.42,4.42,0,0,1,4.36,6,13.75,13.75,0,0,1-4.27,6,30.21,30.21,0,0,1-9.65,5.67,2,2,0,0,0-1,.65H22c.62,0,1.36,0,1.18.89a1.48,1.48,0,0,1-1.17.78c-3.72.07-7.44,0-11.16,0H3.46c-1.51,0-1.6-.13-1.59-1.67C2,19.36,12.28,9.69,24.32,6.48a1.7,1.7,0,0,0,1-.91c.95-2.78,2.8-4.19,5.58-4.13C33.41,1.5,35.3,3.16,36,5.89c0,.07.06.14.06.16,1.95.56,3.88,1,5.75,1.68,2.41.82,3.17,3,1.84,5.18C41,17.29,37,20.12,32.56,22.52c-.28.16-.57.29-.85.44A2.55,2.55,0,0,0,31.47,23.2ZM4,34.28c1.42-.36,2.49-.6,3.55-.91,5.33-1.52,10.27-3.79,14-8a12.82,12.82,0,0,0,2.28-3.74c.81-2-.48-3.66-2.65-3.67a11.58,11.58,0,0,0-6,1.68C9.56,22.93,6.6,28.25,4,34.28Z"/><path d="M30.62,8.63a1.87,1.87,0,0,1-1.76-1.79,1.83,1.83,0,0,1,1.88-1.78,1.76,1.76,0,0,1,1.65,1.85A1.73,1.73,0,0,1,30.62,8.63Z"/><path class="cls-1" d="M4,34.28c2.63-6,5.59-11.35,11.19-14.64a11.58,11.58,0,0,1,6-1.68c2.17,0,3.46,1.64,2.65,3.67a12.82,12.82,0,0,1-2.28,3.74c-3.76,4.21-8.7,6.48-14,8C6.46,33.68,5.39,33.92,4,34.28Z"/></g></g></svg>